<svg xmlns="http://www.w3.org/2000/svg"  viewBox="0 0 48 48" width="48px" height="48px"><path d="M 25.001953 2.9824219 L 19.814453 3.0097656 C 19.008453 3.0127656 18.245438 3.4045469 17.773438 4.0605469 L 16.490234 5.84375 C 9.4042344 7.43675 5.9550781 12.582594 5.9550781 21.558594 L 6.9082031 25.273438 C 5.7942031 25.746437 5.0175781 26.786 5.0175781 28 C 5.0175781 29.582 6.3349531 30.862516 8.0019531 30.978516 C 8.8049531 38.841516 15.661609 45.003906 23.974609 45.003906 C 32.345609 45.003906 39.230078 38.825609 39.955078 30.974609 C 41.658078 30.796609 42.982422 29.537141 42.982422 27.994141 C 42.982422 26.623141 41.932859 25.479234 40.505859 25.115234 L 40.982422 20.664062 L 40.992188 20.505859 C 40.992188 9.2058594 35.315953 2.9824219 25.001953 2.9824219 z M 19.361328 14.179688 C 25.896328 18.989687 34.763844 19.519969 37.964844 19.542969 C 37.974844 19.837969 37.991187 20.121781 37.992188 20.425781 C 36.899188 30.625781 37.094625 28.783094 37.015625 29.621094 C 37.015625 36.456094 31.172609 42.003906 23.974609 42.003906 C 16.899609 42.003906 10.919922 36.245641 10.919922 29.431641 C 10.841922 29.000641 10.828281 28.742844 9.1132812 21.964844 C 12.010281 20.690844 16.559328 17.289687 19.361328 14.179688 z M 19.001953 16.996094 L 19.001953 19.921875 L 16.019531 18.660156 L 16.019531 23.175781 C 13.692531 23.820781 11.978516 25.951469 11.978516 28.480469 C 11.978516 31.519469 14.451234 33.992188 17.490234 33.992188 C 20.359234 33.992188 22.718609 31.788328 22.974609 28.986328 L 25.013672 28.986328 C 25.269672 31.789328 27.629047 33.992187 30.498047 33.992188 C 33.537047 33.992188 36.011719 31.519469 36.011719 28.480469 C 36.010719 25.442469 33.537047 22.970703 30.498047 22.970703 C 27.971047 22.970703 25.840359 24.683813 25.193359 27.007812 L 22.792969 27.007812 C 22.188969 24.837812 20.291375 23.203094 17.984375 22.996094 L 18.007812 21.03125 L 20.96875 22.410156 L 20.994141 17.001953 L 19.001953 16.996094 z M 17.488281 24.970703 C 19.424281 24.970703 20.998047 26.546422 20.998047 28.482422 C 20.998047 30.418422 19.424281 31.992187 17.488281 31.992188 C 15.552281 31.992188 13.976563 30.418422 13.976562 28.482422 C 13.976562 26.546422 15.552281 24.970703 17.488281 24.970703 z M 30.498047 24.970703 C 32.435047 24.970703 34.009766 26.546422 34.009766 28.482422 C 34.009766 30.418422 32.435047 31.992187 30.498047 31.992188 C 28.562047 31.992188 26.986328 30.418422 26.986328 28.482422 C 26.986328 26.546422 28.562047 24.970703 30.498047 24.970703 z M 30.5 26.994141 A 1.486 1.497 0 1 0 30.5 29.988281 A 1.486 1.497 0 1 0 30.5 26.994141 z M 17.486328 27.003906 A 1.494 1.494 0 1 0 17.486328 29.990234 A 1.494 1.494 0 1 0 17.486328 27.003906 z M 20.873047 35.490234 C 20.392187 35.517305 19.931641 35.775078 19.666016 36.220703 C 19.242016 36.931703 19.4765 37.851391 20.1875 38.275391 L 21.238281 38.902344 C 22.228281 39.491344 23.339172 39.785156 24.451172 39.785156 C 25.548172 39.785156 26.643047 39.500734 27.623047 38.927734 L 28.726562 38.283203 C 29.442563 37.865203 29.681672 36.945469 29.263672 36.230469 C 28.844672 35.513469 27.923891 35.273406 27.212891 35.691406 L 26.109375 36.337891 C 25.078375 36.940891 23.800437 36.935219 22.773438 36.324219 L 21.722656 35.699219 C 21.456781 35.540594 21.161562 35.473992 20.873047 35.490234 z"/></svg>